<svg width="57" height="59" viewBox="0 0 57 59" fill="none" xmlns="http://www.w3.org/2000/svg">
<g clip-path="url(#clip0_3868_52016)">
<path d="M48.3853 2.78894L31.1184 2.798L33.0752 6.1318L46.4829 6.12274L53.2773 17.6189L46.7093 29.1241H48.7114L49.6717 30.782L57.1094 17.5283L48.3853 2.78894Z" fill="#A6CE42"/>
<path d="M53.2231 43.7004L46.4921 55.3596L33.1116 55.3868L26.4622 43.9631L25.4113 45.7478L23.5723 45.7387L31.3179 58.8202H48.3493L57.0914 43.6823L53.2231 43.7004Z" fill="#F57E20"/>
<path d="M8.58819 15.7798L0.0725098 30.6732L8.58819 45.7387L10.5359 42.3234L3.90457 30.6823L10.5359 19.1227H23.6809L22.6934 17.4105L23.6356 15.7798H8.58819Z" fill="#00AAE5"/>
<path d="M30.4028 30.791L23.5087 42.3596L10.5449 42.3234L8.58813 45.7387L25.4745 45.7931L33.2745 32.5031L30.4028 30.791Z" fill="#0081BB"/>
<path d="M33.6174 29.3171L26.9589 17.6035L33.3728 6.34286L31.4341 3L23 17.6216L30.7094 30.9749L33.6174 29.3171Z" fill="#79BB43"/>
<path d="M33.3108 29.1331L33.2927 32.5032L46.7185 32.4941L53.2865 43.7366L57.1547 43.7185L48.7206 29.1241L33.3108 29.1331Z" fill="#F05523"/>
</g>
<defs>
<clipPath id="clip0_3868_52016">
<rect width="57" height="59" fill="white"/>
</clipPath>
</defs>
</svg>
